<svg xmlns="http://www.w3.org/2000/svg" xmlns:xlink="http://www.w3.org/1999/xlink" width="800" height="800" viewBox="0 0 600 600"><defs><clipPath id="a"><path d="M29 180h271v371H29zm0 0"/></clipPath><clipPath id="b"><path d="M558.941 479.5l-5 7.621-5.902 7.11-6.797 6.605-7.687 6.113-8.563 5.637-9.414 5.172-10.246 4.726-11.043 4.293-11.812 3.887-12.543 3.488-13.223 3.114-13.863 2.754-14.446 2.41-14.976 2.086-15.446 1.773-15.855 1.477-16.2 1.191-16.476.91-16.683.64-16.825.376-16.886.117-16.887-.145-16.813-.406-16.664-.672-16.449-.941-16.16-1.219-15.812-1.512-15.399-1.808-14.918-2.121-14.387-2.45-13.789-2.792-13.152-3.153-12.46-3.535-11.731-3.93-10.957-4.34-10.153-4.777-9.32-5.222-8.465-5.688-7.586-6.168-6.7-6.66-5.8-7.168-4.898-7.68-4-8.199-3.106-8.726-2.222-9.25-1.356-9.77-.508-10.29.32-10.796 1.118-11.289 1.89-11.766 2.621-12.222 3.329-12.653 3.988-13.05 4.613-13.422 5.196-13.754 5.742-14.043 6.242-14.29 6.695-14.488 7.117-14.636 7.489-14.73 7.82-14.774 8.117-14.75 8.371-14.676 8.594-14.531 8.773-14.328 8.93-14.063 9.05-13.734 9.15-13.34 9.222-12.887 9.266-12.367 9.3-11.793 9.317-11.16 9.312-10.465 9.305-9.726 9.29-8.934 9.265-8.098 9.234-7.218 9.207-6.301 9.184-5.352 9.152-4.375 9.137-3.375 9.117-2.355 9.105-1.325 9.098-.285 9.102.75 9.113 1.79 9.121 2.812 9.145 3.828 9.164 4.816 9.195 5.782 9.219 6.715 9.25 7.617 9.273 8.476 9.297 9.297 9.312 10.063 9.317 10.785 9.308 11.449 9.29 12.059 9.25 12.609 9.187 13.098 9.11 13.523 9 13.887 8.863 14.191 8.699 14.43 8.496 14.601 8.262 14.72L510 253.09l7.68 14.762 7.324 14.695 6.933 14.578 6.5 14.402 6.02 14.188 5.504 13.918 4.941 13.605 4.34 13.262 3.696 12.879 3.015 12.46 2.297 12.02 1.547 11.555.762 11.07-.047 10.57-.883 10.06-1.742 9.538-2.617 9.012-3.508 8.492m-32.996-12.465l1.277-2.418 2.148-5.203 1.586-5.465 1.13-6.18.613-6.984.035-7.828-.598-8.668-1.27-9.472-1.953-10.227-2.644-10.922-3.313-11.55-3.965-12.118-4.582-12.617-5.16-13.05-5.699-13.423-6.191-13.726-6.64-13.969-7.052-14.137-7.406-14.242-7.723-14.273-7.996-14.242-8.226-14.137-8.414-13.957-8.563-13.707-8.672-13.387-8.746-12.988-8.789-12.524-8.789-11.976-8.754-11.371-8.691-10.688-8.586-9.937-8.442-9.13-8.261-8.257-8.028-7.34-7.75-6.379-7.418-5.402-7.03-4.422-6.606-3.473-6.16-2.578-5.739-1.77-5.383-1.054-5.171-.43-5.125.164-5.27.766-5.563 1.438-5.964 2.203-6.41 3.062-6.844 3.988-7.25 4.961-7.606 5.946-7.91 6.914-8.164 7.851-8.367 8.746-8.527 9.582-8.649 10.36-8.73 11.07-8.778 11.715-8.793 12.289-8.77 12.785-8.71 13.219-8.617 13.57-8.485 13.856-8.316 14.066-8.102 14.203-7.851 14.27-7.555 14.265-7.215 14.192-6.828 14.05-6.402 13.844-5.922 13.567-5.406 13.226-4.848 12.82-4.246 12.348-3.61 11.813-2.945 11.21-2.265 10.548-1.575 9.816-.894 9.035-.242 8.207.359 7.363.906 6.532 1.387 5.773 1.828 5.125 2.266 4.645 2.761 4.332 3.375 4.168 4.118 4.093 4.996 4.063 5.965 4.008 6.996 3.922 8.039 3.78 9.062 3.59 10.051 3.368 10.984 3.113 11.848 2.844 12.648 2.562 13.375 2.278 14.024 1.992 14.594 1.715 15.086 1.441 15.504 1.168 15.835.906 16.086.649 16.254.394 16.344.141 16.348-.113 16.273-.364 16.11-.62 15.867-.876 15.543-1.14 15.136-1.41 14.657-1.684 14.09-1.961 13.449-2.246 12.734-2.531 11.941-2.813 11.082-3.082 10.16-3.34 9.176-3.566 8.157-3.762 7.11-3.91 6.081-4 5.098-4.059 4.21-4.09 3.45-4.156"/></clipPath><clipPath id="c"><path d="M29 151h300v400H29zm0 0"/></clipPath><clipPath id="d"><path d="M558.941 479.5l-5 7.621-5.902 7.11-6.797 6.605-7.687 6.113-8.563 5.637-9.414 5.172-10.246 4.726-11.043 4.293-11.812 3.887-12.543 3.488-13.223 3.114-13.863 2.754-14.446 2.41-14.976 2.086-15.446 1.773-15.855 1.477-16.2 1.191-16.476.91-16.683.64-16.825.376-16.886.117-16.887-.145-16.813-.406-16.664-.672-16.449-.941-16.16-1.219-15.812-1.512-15.399-1.808-14.918-2.121-14.387-2.45-13.789-2.792-13.152-3.153-12.46-3.535-11.731-3.93-10.957-4.34-10.153-4.777-9.32-5.222-8.465-5.688-7.586-6.168-6.7-6.66-5.8-7.168-4.898-7.68-4-8.199-3.106-8.726-2.222-9.25-1.356-9.77-.508-10.29.32-10.796 1.118-11.289 1.89-11.766 2.621-12.222 3.329-12.653 3.988-13.05 4.613-13.422 5.196-13.754 5.742-14.043 6.242-14.29 6.695-14.488 7.117-14.636 7.489-14.73 7.82-14.774 8.117-14.75 8.371-14.676 8.594-14.531 8.773-14.328 8.93-14.063 9.05-13.734 9.15-13.34 9.222-12.887 9.266-12.367 9.3-11.793 9.317-11.16 9.312-10.465 9.305-9.726 9.29-8.934 9.265-8.098 9.234-7.218 9.207-6.301 9.184-5.352 9.152-4.375 9.137-3.375 9.117-2.355 9.105-1.325 9.098-.285 9.102.75 9.113 1.79 9.121 2.812 9.145 3.828 9.164 4.816 9.195 5.782 9.219 6.715 9.25 7.617 9.273 8.476 9.297 9.297 9.312 10.063 9.317 10.785 9.308 11.449 9.29 12.059 9.25 12.609 9.187 13.098 9.11 13.523 9 13.887 8.863 14.191 8.699 14.43 8.496 14.601 8.262 14.72L510 253.09l7.68 14.762 7.324 14.695 6.933 14.578 6.5 14.402 6.02 14.188 5.504 13.918 4.941 13.605 4.34 13.262 3.696 12.879 3.015 12.46 2.297 12.02 1.547 11.555.762 11.07-.047 10.57-.883 10.06-1.742 9.538-2.617 9.012-3.508 8.492m-32.996-12.465l1.277-2.418 2.148-5.203 1.586-5.465 1.13-6.18.613-6.984.035-7.828-.598-8.668-1.27-9.472-1.953-10.227-2.644-10.922-3.313-11.55-3.965-12.118-4.582-12.617-5.16-13.05-5.699-13.423-6.191-13.726-6.64-13.969-7.052-14.137-7.406-14.242-7.723-14.273-7.996-14.242-8.226-14.137-8.414-13.957-8.563-13.707-8.672-13.387-8.746-12.988-8.789-12.524-8.789-11.976-8.754-11.371-8.691-10.688-8.586-9.937-8.442-9.13-8.261-8.257-8.028-7.34-7.75-6.379-7.418-5.402-7.03-4.422-6.606-3.473-6.16-2.578-5.739-1.77-5.383-1.054-5.171-.43-5.125.164-5.27.766-5.563 1.438-5.964 2.203-6.41 3.062-6.844 3.988-7.25 4.961-7.606 5.946-7.91 6.914-8.164 7.851-8.367 8.746-8.527 9.582-8.649 10.36-8.73 11.07-8.778 11.715-8.793 12.289-8.77 12.785-8.71 13.219-8.617 13.57-8.485 13.856-8.316 14.066-8.102 14.203-7.851 14.27-7.555 14.265-7.215 14.192-6.828 14.05-6.402 13.844-5.922 13.567-5.406 13.226-4.848 12.82-4.246 12.348-3.61 11.813-2.945 11.21-2.265 10.548-1.575 9.816-.894 9.035-.242 8.207.359 7.363.906 6.532 1.387 5.773 1.828 5.125 2.266 4.645 2.761 4.332 3.375 4.168 4.118 4.093 4.996 4.063 5.965 4.008 6.996 3.922 8.039 3.78 9.062 3.59 10.051 3.368 10.984 3.113 11.848 2.844 12.648 2.562 13.375 2.278 14.024 1.992 14.594 1.715 15.086 1.441 15.504 1.168 15.835.906 16.086.649 16.254.394 16.344.141 16.348-.113 16.273-.364 16.11-.62 15.867-.876 15.543-1.14 15.136-1.41 14.657-1.684 14.09-1.961 13.449-2.246 12.734-2.531 11.941-2.813 11.082-3.082 10.16-3.34 9.176-3.566 8.157-3.762 7.11-3.91 6.081-4 5.098-4.059 4.21-4.09 3.45-4.156"/></clipPath><clipPath id="e"><path d="M40 31h520v224H40zm0 0"/></clipPath><clipPath id="f"><path d="M558.941 479.5l-5 7.621-5.902 7.11-6.797 6.605-7.687 6.113-8.563 5.637-9.414 5.172-10.246 4.726-11.043 4.293-11.812 3.887-12.543 3.488-13.223 3.114-13.863 2.754-14.446 2.41-14.976 2.086-15.446 1.773-15.855 1.477-16.2 1.191-16.476.91-16.683.64-16.825.376-16.886.117-16.887-.145-16.813-.406-16.664-.672-16.449-.941-16.16-1.219-15.812-1.512-15.399-1.808-14.918-2.121-14.387-2.45-13.789-2.792-13.152-3.153-12.46-3.535-11.731-3.93-10.957-4.34-10.153-4.777-9.32-5.222-8.465-5.688-7.586-6.168-6.7-6.66-5.8-7.168-4.898-7.68-4-8.199-3.106-8.726-2.222-9.25-1.356-9.77-.508-10.29.32-10.796 1.118-11.289 1.89-11.766 2.621-12.222 3.329-12.653 3.988-13.05 4.613-13.422 5.196-13.754 5.742-14.043 6.242-14.29 6.695-14.488 7.117-14.636 7.489-14.73 7.82-14.774 8.117-14.75 8.371-14.676 8.594-14.531 8.773-14.328 8.93-14.063 9.05-13.734 9.15-13.34 9.222-12.887 9.266-12.367 9.3-11.793 9.317-11.16 9.312-10.465 9.305-9.726 9.29-8.934 9.265-8.098 9.234-7.218 9.207-6.301 9.184-5.352 9.152-4.375 9.137-3.375 9.117-2.355 9.105-1.325 9.098-.285 9.102.75 9.113 1.79 9.121 2.812 9.145 3.828 9.164 4.816 9.195 5.782 9.219 6.715 9.25 7.617 9.273 8.476 9.297 9.297 9.312 10.063 9.317 10.785 9.308 11.449 9.29 12.059 9.25 12.609 9.187 13.098 9.11 13.523 9 13.887 8.863 14.191 8.699 14.43 8.496 14.601 8.262 14.72L510 253.09l7.68 14.762 7.324 14.695 6.933 14.578 6.5 14.402 6.02 14.188 5.504 13.918 4.941 13.605 4.34 13.262 3.696 12.879 3.015 12.46 2.297 12.02 1.547 11.555.762 11.07-.047 10.57-.883 10.06-1.742 9.538-2.617 9.012-3.508 8.492m-32.996-12.465l1.277-2.418 2.148-5.203 1.586-5.465 1.13-6.18.613-6.984.035-7.828-.598-8.668-1.27-9.472-1.953-10.227-2.644-10.922-3.313-11.55-3.965-12.118-4.582-12.617-5.16-13.05-5.699-13.423-6.191-13.726-6.64-13.969-7.052-14.137-7.406-14.242-7.723-14.273-7.996-14.242-8.226-14.137-8.414-13.957-8.563-13.707-8.672-13.387-8.746-12.988-8.789-12.524-8.789-11.976-8.754-11.371-8.691-10.688-8.586-9.937-8.442-9.13-8.261-8.257-8.028-7.34-7.75-6.379-7.418-5.402-7.03-4.422-6.606-3.473-6.16-2.578-5.739-1.77-5.383-1.054-5.171-.43-5.125.164-5.27.766-5.563 1.438-5.964 2.203-6.41 3.062-6.844 3.988-7.25 4.961-7.606 5.946-7.91 6.914-8.164 7.851-8.367 8.746-8.527 9.582-8.649 10.36-8.73 11.07-8.778 11.715-8.793 12.289-8.77 12.785-8.71 13.219-8.617 13.57-8.485 13.856-8.316 14.066-8.102 14.203-7.851 14.27-7.555 14.265-7.215 14.192-6.828 14.05-6.402 13.844-5.922 13.567-5.406 13.226-4.848 12.82-4.246 12.348-3.61 11.813-2.945 11.21-2.265 10.548-1.575 9.816-.894 9.035-.242 8.207.359 7.363.906 6.532 1.387 5.773 1.828 5.125 2.266 4.645 2.761 4.332 3.375 4.168 4.118 4.093 4.996 4.063 5.965 4.008 6.996 3.922 8.039 3.78 9.062 3.59 10.051 3.368 10.984 3.113 11.848 2.844 12.648 2.562 13.375 2.278 14.024 1.992 14.594 1.715 15.086 1.441 15.504 1.168 15.835.906 16.086.649 16.254.394 16.344.141 16.348-.113 16.273-.364 16.11-.62 15.867-.876 15.543-1.14 15.136-1.41 14.657-1.684 14.09-1.961 13.449-2.246 12.734-2.531 11.941-2.813 11.082-3.082 10.16-3.34 9.176-3.566 8.157-3.762 7.11-3.91 6.081-4 5.098-4.059 4.21-4.09 3.45-4.156"/></clipPath><clipPath id="g"><path d="M29 31h542v253H29zm0 0"/></clipPath><clipPath id="h"><path d="M558.941 479.5l-5 7.621-5.902 7.11-6.797 6.605-7.687 6.113-8.563 5.637-9.414 5.172-10.246 4.726-11.043 4.293-11.812 3.887-12.543 3.488-13.223 3.114-13.863 2.754-14.446 2.41-14.976 2.086-15.446 1.773-15.855 1.477-16.2 1.191-16.476.91-16.683.64-16.825.376-16.886.117-16.887-.145-16.813-.406-16.664-.672-16.449-.941-16.16-1.219-15.812-1.512-15.399-1.808-14.918-2.121-14.387-2.45-13.789-2.792-13.152-3.153-12.46-3.535-11.731-3.93-10.957-4.34-10.153-4.777-9.32-5.222-8.465-5.688-7.586-6.168-6.7-6.66-5.8-7.168-4.898-7.68-4-8.199-3.106-8.726-2.222-9.25-1.356-9.77-.508-10.29.32-10.796 1.118-11.289 1.89-11.766 2.621-12.222 3.329-12.653 3.988-13.05 4.613-13.422 5.196-13.754 5.742-14.043 6.242-14.29 6.695-14.488 7.117-14.636 7.489-14.73 7.82-14.774 8.117-14.75 8.371-14.676 8.594-14.531 8.773-14.328 8.93-14.063 9.05-13.734 9.15-13.34 9.222-12.887 9.266-12.367 9.3-11.793 9.317-11.16 9.312-10.465 9.305-9.726 9.29-8.934 9.265-8.098 9.234-7.218 9.207-6.301 9.184-5.352 9.152-4.375 9.137-3.375 9.117-2.355 9.105-1.325 9.098-.285 9.102.75 9.113 1.79 9.121 2.812 9.145 3.828 9.164 4.816 9.195 5.782 9.219 6.715 9.25 7.617 9.273 8.476 9.297 9.297 9.312 10.063 9.317 10.785 9.308 11.449 9.29 12.059 9.25 12.609 9.187 13.098 9.11 13.523 9 13.887 8.863 14.191 8.699 14.43 8.496 14.601 8.262 14.72L510 253.09l7.68 14.762 7.324 14.695 6.933 14.578 6.5 14.402 6.02 14.188 5.504 13.918 4.941 13.605 4.34 13.262 3.696 12.879 3.015 12.46 2.297 12.02 1.547 11.555.762 11.07-.047 10.57-.883 10.06-1.742 9.538-2.617 9.012-3.508 8.492m-32.996-12.465l1.277-2.418 2.148-5.203 1.586-5.465 1.13-6.18.613-6.984.035-7.828-.598-8.668-1.27-9.472-1.953-10.227-2.644-10.922-3.313-11.55-3.965-12.118-4.582-12.617-5.16-13.05-5.699-13.423-6.191-13.726-6.64-13.969-7.052-14.137-7.406-14.242-7.723-14.273-7.996-14.242-8.226-14.137-8.414-13.957-8.563-13.707-8.672-13.387-8.746-12.988-8.789-12.524-8.789-11.976-8.754-11.371-8.691-10.688-8.586-9.937-8.442-9.13-8.261-8.257-8.028-7.34-7.75-6.379-7.418-5.402-7.03-4.422-6.606-3.473-6.16-2.578-5.739-1.77-5.383-1.054-5.171-.43-5.125.164-5.27.766-5.563 1.438-5.964 2.203-6.41 3.062-6.844 3.988-7.25 4.961-7.606 5.946-7.91 6.914-8.164 7.851-8.367 8.746-8.527 9.582-8.649 10.36-8.73 11.07-8.778 11.715-8.793 12.289-8.77 12.785-8.71 13.219-8.617 13.57-8.485 13.856-8.316 14.066-8.102 14.203-7.851 14.27-7.555 14.265-7.215 14.192-6.828 14.05-6.402 13.844-5.922 13.567-5.406 13.226-4.848 12.82-4.246 12.348-3.61 11.813-2.945 11.21-2.265 10.548-1.575 9.816-.894 9.035-.242 8.207.359 7.363.906 6.532 1.387 5.773 1.828 5.125 2.266 4.645 2.761 4.332 3.375 4.168 4.118 4.093 4.996 4.063 5.965 4.008 6.996 3.922 8.039 3.78 9.062 3.59 10.051 3.368 10.984 3.113 11.848 2.844 12.648 2.562 13.375 2.278 14.024 1.992 14.594 1.715 15.086 1.441 15.504 1.168 15.835.906 16.086.649 16.254.394 16.344.141 16.348-.113 16.273-.364 16.11-.62 15.867-.876 15.543-1.14 15.136-1.41 14.657-1.684 14.09-1.961 13.449-2.246 12.734-2.531 11.941-2.813 11.082-3.082 10.16-3.34 9.176-3.566 8.157-3.762 7.11-3.91 6.081-4 5.098-4.059 4.21-4.09 3.45-4.156"/></clipPath><clipPath id="i"><path d="M300 180h271v371H300zm0 0"/></clipPath><clipPath id="j"><path d="M558.941 479.5l-5 7.621-5.902 7.11-6.797 6.605-7.687 6.113-8.563 5.637-9.414 5.172-10.246 4.726-11.043 4.293-11.812 3.887-12.543 3.488-13.223 3.114-13.863 2.754-14.446 2.41-14.976 2.086-15.446 1.773-15.855 1.477-16.2 1.191-16.476.91-16.683.64-16.825.376-16.886.117-16.887-.145-16.813-.406-16.664-.672-16.449-.941-16.16-1.219-15.812-1.512-15.399-1.808-14.918-2.121-14.387-2.45-13.789-2.792-13.152-3.153-12.46-3.535-11.731-3.93-10.957-4.34-10.153-4.777-9.32-5.222-8.465-5.688-7.586-6.168-6.7-6.66-5.8-7.168-4.898-7.68-4-8.199-3.106-8.726-2.222-9.25-1.356-9.77-.508-10.29.32-10.796 1.118-11.289 1.89-11.766 2.621-12.222 3.329-12.653 3.988-13.05 4.613-13.422 5.196-13.754 5.742-14.043 6.242-14.29 6.695-14.488 7.117-14.636 7.489-14.73 7.82-14.774 8.117-14.75 8.371-14.676 8.594-14.531 8.773-14.328 8.93-14.063 9.05-13.734 9.15-13.34 9.222-12.887 9.266-12.367 9.3-11.793 9.317-11.16 9.312-10.465 9.305-9.726 9.29-8.934 9.265-8.098 9.234-7.218 9.207-6.301 9.184-5.352 9.152-4.375 9.137-3.375 9.117-2.355 9.105-1.325 9.098-.285 9.102.75 9.113 1.79 9.121 2.812 9.145 3.828 9.164 4.816 9.195 5.782 9.219 6.715 9.25 7.617 9.273 8.476 9.297 9.297 9.312 10.063 9.317 10.785 9.308 11.449 9.29 12.059 9.25 12.609 9.187 13.098 9.11 13.523 9 13.887 8.863 14.191 8.699 14.43 8.496 14.601 8.262 14.72L510 253.09l7.68 14.762 7.324 14.695 6.933 14.578 6.5 14.402 6.02 14.188 5.504 13.918 4.941 13.605 4.34 13.262 3.696 12.879 3.015 12.46 2.297 12.02 1.547 11.555.762 11.07-.047 10.57-.883 10.06-1.742 9.538-2.617 9.012-3.508 8.492m-32.996-12.465l1.277-2.418 2.148-5.203 1.586-5.465 1.13-6.18.613-6.984.035-7.828-.598-8.668-1.27-9.472-1.953-10.227-2.644-10.922-3.313-11.55-3.965-12.118-4.582-12.617-5.16-13.05-5.699-13.423-6.191-13.726-6.64-13.969-7.052-14.137-7.406-14.242-7.723-14.273-7.996-14.242-8.226-14.137-8.414-13.957-8.563-13.707-8.672-13.387-8.746-12.988-8.789-12.524-8.789-11.976-8.754-11.371-8.691-10.688-8.586-9.937-8.442-9.13-8.261-8.257-8.028-7.34-7.75-6.379-7.418-5.402-7.03-4.422-6.606-3.473-6.16-2.578-5.739-1.77-5.383-1.054-5.171-.43-5.125.164-5.27.766-5.563 1.438-5.964 2.203-6.41 3.062-6.844 3.988-7.25 4.961-7.606 5.946-7.91 6.914-8.164 7.851-8.367 8.746-8.527 9.582-8.649 10.36-8.73 11.07-8.778 11.715-8.793 12.289-8.77 12.785-8.71 13.219-8.617 13.57-8.485 13.856-8.316 14.066-8.102 14.203-7.851 14.27-7.555 14.265-7.215 14.192-6.828 14.05-6.402 13.844-5.922 13.567-5.406 13.226-4.848 12.82-4.246 12.348-3.61 11.813-2.945 11.21-2.265 10.548-1.575 9.816-.894 9.035-.242 8.207.359 7.363.906 6.532 1.387 5.773 1.828 5.125 2.266 4.645 2.761 4.332 3.375 4.168 4.118 4.093 4.996 4.063 5.965 4.008 6.996 3.922 8.039 3.78 9.062 3.59 10.051 3.368 10.984 3.113 11.848 2.844 12.648 2.562 13.375 2.278 14.024 1.992 14.594 1.715 15.086 1.441 15.504 1.168 15.835.906 16.086.649 16.254.394 16.344.141 16.348-.113 16.273-.364 16.11-.62 15.867-.876 15.543-1.14 15.136-1.41 14.657-1.684 14.09-1.961 13.449-2.246 12.734-2.531 11.941-2.813 11.082-3.082 10.16-3.34 9.176-3.566 8.157-3.762 7.11-3.91 6.081-4 5.098-4.059 4.21-4.09 3.45-4.156"/></clipPath><clipPath id="k"><path d="M271 151h300v400H271zm0 0"/></clipPath><clipPath id="l"><path d="M558.941 479.5l-5 7.621-5.902 7.11-6.797 6.605-7.687 6.113-8.563 5.637-9.414 5.172-10.246 4.726-11.043 4.293-11.812 3.887-12.543 3.488-13.223 3.114-13.863 2.754-14.446 2.41-14.976 2.086-15.446 1.773-15.855 1.477-16.2 1.191-16.476.91-16.683.64-16.825.376-16.886.117-16.887-.145-16.813-.406-16.664-.672-16.449-.941-16.16-1.219-15.812-1.512-15.399-1.808-14.918-2.121-14.387-2.45-13.789-2.792-13.152-3.153-12.46-3.535-11.731-3.93-10.957-4.34-10.153-4.777-9.32-5.222-8.465-5.688-7.586-6.168-6.7-6.66-5.8-7.168-4.898-7.68-4-8.199-3.106-8.726-2.222-9.25-1.356-9.77-.508-10.29.32-10.796 1.118-11.289 1.89-11.766 2.621-12.222 3.329-12.653 3.988-13.05 4.613-13.422 5.196-13.754 5.742-14.043 6.242-14.29 6.695-14.488 7.117-14.636 7.489-14.73 7.82-14.774 8.117-14.75 8.371-14.676 8.594-14.531 8.773-14.328 8.93-14.063 9.05-13.734 9.15-13.34 9.222-12.887 9.266-12.367 9.3-11.793 9.317-11.16 9.312-10.465 9.305-9.726 9.29-8.934 9.265-8.098 9.234-7.218 9.207-6.301 9.184-5.352 9.152-4.375 9.137-3.375 9.117-2.355 9.105-1.325 9.098-.285 9.102.75 9.113 1.79 9.121 2.812 9.145 3.828 9.164 4.816 9.195 5.782 9.219 6.715 9.25 7.617 9.273 8.476 9.297 9.297 9.312 10.063 9.317 10.785 9.308 11.449 9.29 12.059 9.25 12.609 9.187 13.098 9.11 13.523 9 13.887 8.863 14.191 8.699 14.43 8.496 14.601 8.262 14.72L510 253.09l7.68 14.762 7.324 14.695 6.933 14.578 6.5 14.402 6.02 14.188 5.504 13.918 4.941 13.605 4.34 13.262 3.696 12.879 3.015 12.46 2.297 12.02 1.547 11.555.762 11.07-.047 10.57-.883 10.06-1.742 9.538-2.617 9.012-3.508 8.492m-32.996-12.465l1.277-2.418 2.148-5.203 1.586-5.465 1.13-6.18.613-6.984.035-7.828-.598-8.668-1.27-9.472-1.953-10.227-2.644-10.922-3.313-11.55-3.965-12.118-4.582-12.617-5.16-13.05-5.699-13.423-6.191-13.726-6.64-13.969-7.052-14.137-7.406-14.242-7.723-14.273-7.996-14.242-8.226-14.137-8.414-13.957-8.563-13.707-8.672-13.387-8.746-12.988-8.789-12.524-8.789-11.976-8.754-11.371-8.691-10.688-8.586-9.937-8.442-9.13-8.261-8.257-8.028-7.34-7.75-6.379-7.418-5.402-7.03-4.422-6.606-3.473-6.16-2.578-5.739-1.77-5.383-1.054-5.171-.43-5.125.164-5.27.766-5.563 1.438-5.964 2.203-6.41 3.062-6.844 3.988-7.25 4.961-7.606 5.946-7.91 6.914-8.164 7.851-8.367 8.746-8.527 9.582-8.649 10.36-8.73 11.07-8.778 11.715-8.793 12.289-8.77 12.785-8.71 13.219-8.617 13.57-8.485 13.856-8.316 14.066-8.102 14.203-7.851 14.27-7.555 14.265-7.215 14.192-6.828 14.05-6.402 13.844-5.922 13.567-5.406 13.226-4.848 12.82-4.246 12.348-3.61 11.813-2.945 11.21-2.265 10.548-1.575 9.816-.894 9.035-.242 8.207.359 7.363.906 6.532 1.387 5.773 1.828 5.125 2.266 4.645 2.761 4.332 3.375 4.168 4.118 4.093 4.996 4.063 5.965 4.008 6.996 3.922 8.039 3.78 9.062 3.59 10.051 3.368 10.984 3.113 11.848 2.844 12.648 2.562 13.375 2.278 14.024 1.992 14.594 1.715 15.086 1.441 15.504 1.168 15.835.906 16.086.649 16.254.394 16.344.141 16.348-.113 16.273-.364 16.11-.62 15.867-.876 15.543-1.14 15.136-1.41 14.657-1.684 14.09-1.961 13.449-2.246 12.734-2.531 11.941-2.813 11.082-3.082 10.16-3.34 9.176-3.566 8.157-3.762 7.11-3.91 6.081-4 5.098-4.059 4.21-4.09 3.45-4.156"/></clipPath><symbol overflow="visible" id="m"><path d="M141.5-121.5c-1-4.168-1.668-9.582-2-16.25l-1-13c-2-18.332-6.75-32.043-14.25-41.125S107.168-205.5 95.5-205.5c-7.168 0-13.707 1.625-19.625 4.875-5.918 3.25-10.543 7.707-13.875 13.375-3.332 5.668-5 11.918-5 18.75 0 3 .418 6.418 1.25 10.25l-5.75 1.75c-6.168-9.168-10-18-11.5-26.5-.332-1.5-.5-3.832-.5-7 0-7.832 2.082-15.168 6.25-22 4.168-6.832 10-12.332 17.5-16.5 7.5-4.168 16-6.25 25.5-6.25 10.832 0 20.832 2.75 30 8.25s16.668 13.082 22.5 22.75c5.832 9.668 9.332 20.5 10.5 32.5.332 3.668.5 6.332.5 8 0 6.5-.75 12.25-2.25 17.25s-3.832 11.25-7 18.75zM67.25 4C54.25 4 43.207.543 34.125-6.375S20.5-23.332 20.5-36.5c0-9.832 2.793-18.293 8.375-25.375C34.457-68.957 42.668-73.25 53.5-74.75c-1.832 4.832-2.75 9.582-2.75 14.25 0 7 2.125 12.457 6.375 16.375 4.25 3.918 9.375 5.875 15.375 5.875 10.668 0 21.418-5.793 32.25-17.375s20.293-24.5 28.375-38.75 13.957-25.875 17.625-34.875c1-2.332 1.918-4.75 2.75-7.25 5.668-15.5 11.875-29.957 18.625-43.375S188-205.668 199.5-217s24.75-17 39.75-17c11.332 0 20.918 3.5 28.75 10.5 7.832 7 11.75 17.418 11.75 31.25 0 10.668-2.543 19.832-7.625 27.5-5.082 7.668-12.793 12.918-23.125 15.75 1.832-4.168 2.75-8.832 2.75-14 0-7.168-1.793-13.457-5.375-18.875-3.582-5.418-8.125-8.125-13.625-8.125-8.332 0-17.082 5.875-26.25 17.625s-17.293 24.625-24.375 38.625c-7.082 14-12.293 25.25-15.625 33.75-5.5 14.5-11.625 28.543-18.375 42.125s-17.168 27.293-31.25 41.125S86.25 4 67.25 4zm160 1.5c-10.832 0-20.832-2.75-30-8.25s-16.668-13.082-22.5-22.75c-5.832-9.668-9.332-20.5-10.5-32.5-.332-3.668-.5-6.332-.5-8 0-6.5.75-12.25 2.25-17.25s3.832-11.25 7-18.75l2.5-5.75c1 4.168 1.668 9.582 2 16.25l1 13c2 18.332 6.75 32.043 14.25 41.125S209.832-23.75 221.5-23.75c7.168 0 13.707-1.625 19.625-4.875C247.043-31.875 251.668-36.332 255-42c3.332-5.668 5-11.918 5-18.75 0-3-.418-6.418-1.25-10.25l5.75-1.75c6.168 9.168 10 18 11.5 26.5.332 1.5.5 3.832.5 7 0 7.832-2.082 15.168-6.25 22-4.168 6.832-10 12.332-17.5 16.5-7.5 4.168-16 6.25-25.5 6.25zm0 0"/></symbol></defs><g clip-path="url(#a)"><g clip-path="url(#b)"><path d="M300 480v150c-107.18 0-206.219-57.18-259.809-150-53.59-92.82-53.59-207.18 0-300l129.907 75c-26.797 46.41-26.797 103.59 0 150C196.89 451.41 246.41 480 300 480zm0 0" fill="#cb3c33"/></g></g><g clip-path="url(#c)"><g clip-path="url(#d)"><path d="M300 480v150c-107.18 0-206.219-57.18-259.809-150-53.59-92.82-53.59-207.18 0-300l129.907 75c-26.797 46.41-26.797 103.59 0 150C196.89 451.41 246.41 480 300 480zm0 0" fill="none" stroke-width="2" stroke="#cb3c33" stroke-miterlimit="10"/></g></g><g clip-path="url(#e)"><g clip-path="url(#f)"><path d="M170.098 255L40.19 180C93.781 87.18 192.821 30 300 30c107.18 0 206.219 57.18 259.809 150l-129.907 75C403.11 208.59 353.59 180 300 180c-53.59 0-103.11 28.59-129.902 75zm0 0" fill="#389826"/></g></g><g clip-path="url(#g)"><g clip-path="url(#h)"><path d="M170.098 255L40.19 180C93.781 87.18 192.821 30 300 30c107.18 0 206.219 57.18 259.809 150l-129.907 75C403.11 208.59 353.59 180 300 180c-53.59 0-103.11 28.59-129.902 75zm0 0" fill="none" stroke-width="2" stroke="#389826" stroke-miterlimit="10"/></g></g><g clip-path="url(#i)"><g clip-path="url(#j)"><path d="M429.902 255l129.907-75c53.59 92.82 53.59 207.18 0 300S407.179 630 300 630V480c53.59 0 103.11-28.59 129.902-75 26.797-46.41 26.797-103.59 0-150zm0 0" fill="#9558b2"/></g></g><g clip-path="url(#k)"><g clip-path="url(#l)"><path d="M429.902 255l129.907-75c53.59 92.82 53.59 207.18 0 300S407.179 630 300 630V480c53.59 0 103.11-28.59 129.902-75 26.797-46.41 26.797-103.59 0-150zm0 0" fill="none" stroke-width="2" stroke="#9558b2" stroke-miterlimit="10"/></g></g><use xlink:href="#m" x="140" y="447.375"/></svg>